<svg width="125" height="124" viewBox="0 0 125 124" fill="none" xmlns="http://www.w3.org/2000/svg">
<path fill-rule="evenodd" clip-rule="evenodd" d="M6.25225 5.75151C0.83374 11.17 0.83374 19.891 0.83374 37.3329V86.6665C0.83374 104.108 0.83374 112.829 6.25225 118.248C11.6708 123.666 20.3917 123.666 37.8336 123.666H87.1672C104.609 123.666 113.33 123.666 118.749 118.248C124.167 112.829 124.167 104.108 124.167 86.6664V37.3329C124.167 19.891 124.167 11.17 118.749 5.75151C113.33 0.333008 104.609 0.333008 87.1672 0.333008H37.8336C20.3917 0.333008 11.6708 0.333008 6.25225 5.75151ZM98.4643 46.9205C100.353 44.0867 99.5877 40.258 96.754 38.3689C93.9202 36.4797 90.0915 37.2454 88.2024 40.0792L69.4301 68.2376L66.6011 62.5797C62.3661 54.1097 50.5609 53.3747 45.308 61.2541L26.5357 89.4125C24.6465 92.2463 25.4123 96.075 28.246 97.9641C31.0798 99.8533 34.9085 99.0875 36.7976 96.2538L55.5699 68.0954L58.3988 73.7532C62.6338 82.2232 74.4391 82.9583 79.692 75.0789L98.4643 46.9205Z" fill="white"/>
</svg>
