<svg width="635" height="427" viewBox="0 0 635 427" fill="none" xmlns="http://www.w3.org/2000/svg">
<g clip-path="url(#clip0_390_409)">
<path d="M13.2672 0H621.712C629.035 0 634.979 5.9437 634.979 13.2672V413.639C634.979 420.963 629.035 426.907 621.712 426.907H13.2672C5.9437 426.907 0 420.963 0 413.639V13.2672C0 5.9437 5.9437 0 13.2672 0Z" fill="#1E1F21"/>
<path d="M349.155 263.559C384.351 246.08 398.713 203.378 381.234 168.182C363.755 132.985 321.053 118.623 285.857 136.102C250.66 153.581 236.298 196.283 253.777 231.479C271.256 266.676 313.958 281.038 349.155 263.559Z" fill="#333333"/>
<path d="M291.348 199.835V168.886C291.348 163.069 297.652 159.418 302.683 162.326L329.472 177.801L356.261 193.276C361.314 196.184 361.314 203.465 356.261 206.373L329.472 221.848L302.683 237.323C297.631 240.231 291.348 236.601 291.348 230.764V199.814V199.835Z" fill="#F1F2F2"/>
<path d="M620.735 389.8H17.1307C16.2816 389.8 15.5811 389.121 15.5811 388.251C15.5811 387.402 16.2603 386.701 17.1307 386.701H620.735C621.584 386.701 622.285 387.38 622.285 388.251C622.285 389.1 621.605 389.8 620.735 389.8Z" fill="#58595B"/>
<path d="M562.508 405.53H568.134C568.643 405.53 569.046 405.934 569.046 406.443V409.924C569.046 410.434 568.643 410.837 568.134 410.837H562.508C561.999 410.837 561.595 410.434 561.595 409.924V406.443C561.595 405.934 561.999 405.53 562.508 405.53Z" fill="#F1F2F2"/>
<path d="M541.939 400.117C542.533 400.117 543 400.605 543 401.178V411.325C543 411.919 542.512 412.386 541.939 412.386H527.568C526.973 412.386 526.506 411.898 526.506 411.325V401.178C526.506 400.584 526.994 400.117 527.568 400.117H541.939ZM541.939 398.525H527.568C526.103 398.525 524.914 399.714 524.914 401.178V411.325C524.914 412.79 526.103 413.979 527.568 413.979H541.939C543.403 413.979 544.592 412.79 544.592 411.325V401.178C544.592 399.714 543.403 398.525 541.939 398.525Z" fill="#F1F2F2"/>
<path d="M574.735 400.117C575.33 400.117 575.797 400.605 575.797 401.178V411.325C575.797 411.919 575.308 412.386 574.735 412.386H560.364C559.77 412.386 559.303 411.898 559.303 411.325V401.178C559.303 400.584 559.791 400.117 560.364 400.117H574.735ZM574.735 398.525H560.364C558.899 398.525 557.711 399.714 557.711 401.178V411.325C557.711 412.79 558.899 413.979 560.364 413.979H574.735C576.2 413.979 577.389 412.79 577.389 411.325V401.178C577.389 399.714 576.2 398.525 574.735 398.525Z" fill="#F1F2F2"/>
<path d="M594.158 405.976V401.327C594.158 400.711 594.668 400.202 595.283 400.202H599.168V398.525H595.283C593.734 398.525 592.481 399.777 592.481 401.327V405.976H594.158Z" fill="#F1F2F2"/>
<path d="M601.27 400.202H605.154C605.77 400.202 606.279 400.711 606.279 401.327V405.976H607.956V401.327C607.956 399.777 606.704 398.525 605.154 398.525H601.27V400.202Z" fill="#F1F2F2"/>
<path d="M606.279 408.077V411.176C606.279 411.792 605.77 412.301 605.154 412.301H601.27V413.978H605.154C606.704 413.978 607.956 412.726 607.956 411.176V408.077H606.279Z" fill="#F1F2F2"/>
<path d="M599.168 412.301H595.283C594.668 412.301 594.158 411.792 594.158 411.176V408.077H592.481V411.176C592.481 412.726 593.734 413.978 595.283 413.978H599.168V412.301Z" fill="#F1F2F2"/>
<path d="M68.3102 406.251V401.942C68.3102 401.73 68.5437 401.602 68.7347 401.709L72.4708 403.853L76.2068 405.996C76.3979 406.103 76.3979 406.379 76.2068 406.485L72.4708 408.629L68.7347 410.773C68.5437 410.879 68.3102 410.751 68.3102 410.539V406.23V406.251Z" fill="#F1F2F2"/>
<path d="M100.619 403.131H97.6042C97.3495 403.131 97.1372 403.344 97.1372 403.598V408.905C97.1372 409.16 97.3495 409.372 97.6042 409.372H100.619L105.246 414V398.525L100.619 403.152V403.131Z" fill="#F1F2F2"/>
<path d="M78.6906 411.028C78.2448 411.028 77.9052 410.667 77.9052 410.243V402.261C77.9052 401.815 78.266 401.476 78.6906 401.476C79.1363 401.476 79.476 401.836 79.476 402.261V410.243C79.476 410.688 79.1151 411.028 78.6906 411.028Z" fill="#F1F2F2"/>
<path d="M107.093 401.413V402.707C108.367 403.387 109.258 404.703 109.258 406.252C109.258 407.802 108.367 409.118 107.093 409.797V411.092C109.046 410.349 110.426 408.46 110.426 406.252C110.426 404.045 109.046 402.156 107.093 401.413Z" fill="#F1F2F2"/>
<path d="M107.093 397.718V399.735C109.938 400.542 111.997 403.153 111.997 406.252C111.997 409.351 109.916 411.941 107.093 412.769V414.785C111.02 413.936 113.95 410.434 113.95 406.252C113.95 402.07 110.999 398.589 107.093 397.718Z" fill="#F1F2F2"/>
<path d="M32.5631 413.512C31.4593 413.512 30.5465 412.62 30.5465 411.495V401.009C30.5465 399.905 31.4381 398.992 32.5631 398.992C33.667 398.992 34.5797 399.884 34.5797 401.009V411.495C34.5797 412.599 33.6882 413.512 32.5631 413.512Z" fill="#F1F2F2"/>
<path d="M41.6697 413.512C40.5659 413.512 39.6531 412.62 39.6531 411.495V401.009C39.6531 399.905 40.5446 398.992 41.6697 398.992C42.7735 398.992 43.6863 399.884 43.6863 401.009V411.495C43.6863 412.599 42.7947 413.512 41.6697 413.512Z" fill="#F1F2F2"/>
<path d="M26.9378 387.274C26.9378 391.201 23.7536 394.386 19.8266 394.386C15.8995 394.386 12.7153 391.201 12.7153 387.274C12.7153 383.347 15.8995 380.163 19.8266 380.163C23.7536 380.163 26.9378 383.347 26.9378 387.274Z" fill="#C4222E"/>
<path d="M496.851 407.759V405.679C497.531 405.382 498.231 405.106 498.91 404.787C499.144 404.66 499.356 404.427 499.526 404.214C499.993 403.662 499.632 403.153 499.399 402.643C498.698 401.094 498.698 401.094 499.929 399.969C500.099 399.82 500.439 399.757 500.651 399.82C501.245 399.99 501.819 400.266 502.413 400.478C502.965 400.691 503.771 400.33 504.005 399.778C504.323 399.056 504.663 398.356 504.981 397.634H506.934C507.21 398.249 507.529 398.865 507.762 399.502C507.932 399.99 508.229 400.224 508.696 400.436C509.291 400.712 509.715 400.33 510.182 400.139C511.668 399.544 511.647 399.523 512.772 400.627C513.048 400.882 513.133 401.115 512.963 401.476C512.729 402.007 512.517 402.559 512.284 403.11C512.05 403.705 512.39 404.511 512.984 404.745C513.557 404.957 514.109 405.191 514.682 405.403C515.001 405.509 515.086 405.7 515.086 406.04C515.086 407.653 515.107 407.653 513.6 408.29C513.472 408.354 513.345 408.396 513.218 408.46C512.262 408.842 511.987 409.5 512.411 410.455C512.623 410.943 512.857 411.41 513.027 411.92C513.09 412.09 513.027 412.366 512.921 412.493C511.795 413.788 511.795 413.788 510.182 413.13C510.076 413.087 509.949 413.045 509.843 412.981C508.824 412.557 508.166 412.833 507.762 413.852C507.571 414.319 507.401 414.807 507.168 415.253C507.083 415.422 506.807 415.613 506.637 415.592C504.536 415.55 505.151 416.017 504.26 414.128C504.175 413.958 504.154 413.767 504.047 413.639C503.856 413.406 503.644 413.172 503.411 412.981C502.837 412.514 502.307 412.918 501.776 413.13C500.248 413.788 500.226 413.809 499.101 412.599C498.953 412.451 498.868 412.09 498.932 411.877C499.123 411.283 499.399 410.71 499.632 410.137C499.844 409.627 499.484 408.799 498.953 408.587C498.231 408.311 497.531 408.035 496.809 407.759H496.851ZM508.909 406.677C508.909 405.085 507.592 403.811 505.979 403.811C504.387 403.811 503.071 405.085 503.071 406.634C503.071 408.226 504.345 409.521 505.979 409.521C507.592 409.521 508.93 408.248 508.93 406.655L508.909 406.677Z" fill="#F1F2F2"/>
</g>
<defs>
<clipPath id="clip0_390_409">
<rect width="635" height="426.907" fill="white"/>
</clipPath>
</defs>
</svg>
