<svg width="70" height="70" viewBox="0 0 70 70" fill="none" xmlns="http://www.w3.org/2000/svg">
<path d="M60.8907 28.7757L62.607 57.5466C62.6652 58.332 62.287 58.8557 62.0834 59.0884C61.8507 59.3502 61.3561 59.7575 60.5416 59.7575H52.5998L58.8834 28.7757H60.8907ZM64.0907 17.5757L64.0616 17.6339C64.1198 18.332 64.0616 19.0593 63.887 19.7866L42.447 59.1466C41.7489 62.0848 39.1307 64.1211 36.1052 64.1211H60.5416C64.2943 64.1211 67.2616 60.9502 66.9707 57.1975L64.0907 17.5757Z" fill="#F412FB"/>
<path d="M33.4008 6.63758C33.6917 5.47394 32.9644 4.28121 31.8008 3.9903C30.6372 3.72849 29.4444 4.42667 29.1535 5.5903L27.699 11.6121H32.179L33.4008 6.63758Z" fill="#F412FB"/>
<path d="M52.5996 6.55044C52.8614 5.35771 52.1051 4.22317 50.9123 3.96135C49.7487 3.69953 48.5851 4.45589 48.3233 5.64862L47.0142 11.6704H51.4942L52.5996 6.55044Z" fill="#F412FB"/>
<path d="M63.568 15.6264C62.608 13.2991 60.3389 11.6409 57.5462 11.6409H51.4953L49.8662 19.1755C49.6335 20.1937 48.7317 20.8919 47.7426 20.8919C47.5971 20.8919 47.4226 20.8919 47.2771 20.8337C46.1135 20.5719 45.3571 19.4082 45.5898 18.2446L47.0153 11.6119H32.1789L30.3462 19.1755C30.1135 20.1646 29.2117 20.8337 28.2226 20.8337C28.048 20.8337 27.8735 20.8046 27.6989 20.7755C26.5353 20.4846 25.808 19.3209 26.0989 18.1282L27.6698 11.5828H21.7644C18.9135 11.5828 16.3826 13.4446 15.5389 16.1791L3.29166 55.5973C2.01166 59.8155 5.12439 64.1209 9.51711 64.1209H47.7426C50.768 64.1209 53.3862 62.0846 54.0844 59.1464L63.888 19.7864C64.0626 19.0591 64.1208 18.3319 64.0626 17.6337C64.0044 16.9355 63.8589 16.2373 63.568 15.6264ZM42.8553 48.8482H19.5826C18.3898 48.8482 17.4008 47.8591 17.4008 46.6664C17.4008 45.4737 18.3898 44.4846 19.5826 44.4846H42.8553C44.048 44.4846 45.0371 45.4737 45.0371 46.6664C45.0371 47.8591 44.048 48.8482 42.8553 48.8482ZM45.7644 37.2119H22.4917C21.2989 37.2119 20.3098 36.2228 20.3098 35.03C20.3098 33.8373 21.2989 32.8482 22.4917 32.8482H45.7644C46.9571 32.8482 47.9462 33.8373 47.9462 35.03C47.9462 36.2228 46.9571 37.2119 45.7644 37.2119Z" fill="#F412FB"/>
</svg>
