<svg width="57" height="58" viewBox="0 0 57 58" fill="none" xmlns="http://www.w3.org/2000/svg">
<path fill-rule="evenodd" clip-rule="evenodd" d="M25.2309 0.770518L25.2309 19.3411C20.3848 18.7881 15.9218 16.9755 12.5327 14.2218C10.6498 12.692 9.18252 10.9448 8.14667 9.07949C12.6032 4.54832 18.5697 1.50689 25.2309 0.770518ZM31.5386 0.770508V19.3411C36.3848 18.7881 40.8478 16.9755 44.2369 14.2218C46.1198 12.692 47.5871 10.9448 48.6229 9.07943C44.1664 4.54828 38.1999 1.50686 31.5386 0.770508ZM52.7225 14.3666C51.4732 16.1018 49.959 17.6999 48.2145 19.1173C43.6351 22.8381 37.7444 25.1059 31.5386 25.6819L31.5386 32.2813C34.1077 32.5197 36.6344 33.049 39.0462 33.8607C42.4395 35.0027 45.559 36.6884 48.2145 38.8459C49.9476 40.2541 51.4654 41.8493 52.7231 43.5963C55.292 39.3274 56.7695 34.3272 56.7695 28.982C56.7695 23.6363 55.2918 18.6358 52.7225 14.3666ZM48.623 48.8844C47.5795 47.007 46.1041 45.2586 44.2369 43.7414C42.2065 42.0917 39.7632 40.7574 37.0342 39.8389C35.2751 39.2469 33.4278 38.8381 31.5386 38.6224V57.1934C38.1999 56.4571 44.1665 53.4156 48.623 48.8844ZM25.2309 57.1934L25.2309 38.6224C23.3417 38.8381 21.4945 39.2469 19.7353 39.8389C17.0064 40.7574 14.563 42.0917 12.5327 43.7414C10.6654 45.2585 9.19012 47.007 8.1466 48.8844C12.6031 53.4156 18.5696 56.4571 25.2309 57.1934ZM4.04646 43.5963C5.30419 41.8493 6.82196 40.2541 8.55507 38.8459C11.2105 36.6884 14.33 35.0027 17.7234 33.8607C20.1352 33.049 22.6619 32.5197 25.2309 32.2813V25.6819C19.0252 25.1059 13.1345 22.8381 8.55508 19.1173C6.8106 17.7 5.29642 16.1018 4.04709 14.3666C1.47785 18.6358 0.00012207 23.6363 0.00012207 28.982C0.00012207 34.3272 1.47761 39.3273 4.04646 43.5963Z" fill="url(#paint0_linear_402_1761)"/>
<defs>
<linearGradient id="paint0_linear_402_1761" x1="-19.5695" y1="29.0044" x2="45.1942" y2="73.8937" gradientUnits="userSpaceOnUse">
<stop stop-color="#FF9900"/>
<stop offset="1" stop-color="#FFFF00"/>
</linearGradient>
</defs>
</svg>
