<svg width="57" height="57" viewBox="0 0 57 57" fill="none" xmlns="http://www.w3.org/2000/svg">
<path fill-rule="evenodd" clip-rule="evenodd" d="M2.63355 2.82544C0.152832 5.30616 0.152832 9.2988 0.152832 17.2841V39.8701C0.152832 47.8554 0.152832 51.8481 2.63355 54.3288C5.11426 56.8095 9.10691 56.8095 17.0922 56.8095H39.6782C47.6635 56.8095 51.6562 56.8095 54.1369 54.3288C56.6176 51.8481 56.6176 47.8554 56.6176 39.8701V17.2841C56.6176 9.29881 56.6176 5.30616 54.1369 2.82544C51.6562 0.344727 47.6635 0.344727 39.6783 0.344727H17.0922C9.10691 0.344727 5.11426 0.344727 2.63355 2.82544ZM44.8502 21.6735C45.7151 20.3761 45.3646 18.6233 44.0672 17.7584C42.7699 16.8935 41.017 17.244 40.1521 18.5414L31.5577 31.4329L30.2626 28.8427C28.3237 24.9649 22.919 24.6284 20.5141 28.2357L11.9197 41.1273C11.0548 42.4247 11.4054 44.1775 12.7027 45.0424C14.0001 45.9073 15.7529 45.5567 16.6178 44.2594L25.2122 31.3678L26.5074 33.9581C28.4463 37.8359 33.851 38.1724 36.2559 34.565L44.8502 21.6735Z" fill="url(#paint0_linear_402_1786)"/>
<defs>
<linearGradient id="paint0_linear_402_1786" x1="-19.3118" y1="28.5996" x2="45.3598" y2="73.1514" gradientUnits="userSpaceOnUse">
<stop stop-color="#FF9900"/>
<stop offset="1" stop-color="#FFFF00"/>
</linearGradient>
</defs>
</svg>
