<svg width="57" height="57" viewBox="0 0 57 57" fill="none" xmlns="http://www.w3.org/2000/svg">
<path fill-rule="evenodd" clip-rule="evenodd" d="M25.2309 0.558604L25.2309 19.1292C20.3848 18.5762 15.9218 16.7636 12.5327 14.0099C10.6498 12.4801 9.18252 10.7329 8.14667 8.86758C12.6032 4.33641 18.5697 1.29498 25.2309 0.558604ZM31.5386 0.558594V19.1292C36.3848 18.5762 40.8478 16.7636 44.2369 14.0099C46.1198 12.4801 47.5871 10.7329 48.6229 8.86752C44.1664 4.33636 38.1999 1.29495 31.5386 0.558594ZM52.7225 14.1547C51.4732 15.8899 49.959 17.488 48.2145 18.9054C43.6351 22.6262 37.7444 24.894 31.5386 25.47L31.5386 32.0694C34.1077 32.3078 36.6344 32.8371 39.0462 33.6488C42.4395 34.7908 45.559 36.4765 48.2145 38.634C49.9476 40.0422 51.4654 41.6374 52.7231 43.3844C55.292 39.1155 56.7695 34.1153 56.7695 28.7701C56.7695 23.4244 55.2918 18.4238 52.7225 14.1547ZM48.623 48.6725C47.5795 46.7951 46.1041 45.0466 44.2369 43.5295C42.2065 41.8798 39.7632 40.5454 37.0342 39.627C35.2751 39.035 33.4278 38.6262 31.5386 38.4104V56.9815C38.1999 56.2452 44.1665 53.2037 48.623 48.6725ZM25.2309 56.9815L25.2309 38.4104C23.3417 38.6262 21.4945 39.035 19.7353 39.627C17.0064 40.5454 14.563 41.8798 12.5327 43.5295C10.6654 45.0466 9.19012 46.7951 8.1466 48.6725C12.6031 53.2037 18.5696 56.2451 25.2309 56.9815ZM4.04646 43.3844C5.30419 41.6373 6.82196 40.0422 8.55507 38.634C11.2105 36.4765 14.33 34.7908 17.7234 33.6488C20.1352 32.8371 22.6619 32.3078 25.2309 32.0694V25.47C19.0252 24.894 13.1345 22.6262 8.55508 18.9054C6.8106 17.488 5.29642 15.8899 4.04709 14.1547C1.47785 18.4239 0.00012207 23.4244 0.00012207 28.7701C0.00012207 34.1153 1.47761 39.1154 4.04646 43.3844Z" fill="white"/>
</svg>
