<svg width="124" height="124" viewBox="0 0 124 124" fill="none" xmlns="http://www.w3.org/2000/svg">
<path fill-rule="evenodd" clip-rule="evenodd" d="M91.5447 55.174H124V32.4553C124 23.493 116.735 16.2277 107.772 16.2277C98.8101 16.2277 91.5447 23.493 91.5447 32.4553V55.174ZM78.5626 55.174L78.5626 32.4553C78.5626 17.4121 89.9344 5.0249 104.551 3.42123C101.137 3.24561 96.9431 3.24561 91.5446 3.24561L26.6341 3.24561C14.3945 3.2456 8.27466 3.2456 4.47229 7.04797C0.669922 10.8503 0.669922 16.9702 0.669922 29.2098L0.669926 120.084L20.1431 113.593L39.6162 120.084L59.0894 113.593L77.9211 119.871L78.5626 55.174ZM59.0894 35.7008H20.1431C16.5582 35.7008 13.652 32.7947 13.652 29.2098C13.652 25.6248 16.5582 22.7187 20.1431 22.7187L59.0894 22.7187C62.6743 22.7187 65.5804 25.6248 65.5804 29.2098C65.5804 32.7947 62.6743 35.7008 59.0894 35.7008ZM13.652 55.174C13.652 51.5891 16.5582 48.6829 20.1431 48.6829H33.1252C36.7101 48.6829 39.6162 51.5891 39.6162 55.174C39.6162 58.7589 36.7101 61.665 33.1252 61.665H20.1431C16.5582 61.665 13.652 58.7589 13.652 55.174ZM13.652 81.1382C13.652 77.5533 16.5582 74.6471 20.1431 74.6471H46.1073C49.6922 74.6471 52.5983 77.5533 52.5983 81.1382C52.5983 84.7231 49.6922 87.6292 46.1073 87.6292H20.1431C16.5582 87.6292 13.652 84.7231 13.652 81.1382Z" fill="white"/>
</svg>
