<svg width="65" height="57" viewBox="0 0 65 57" fill="none" xmlns="http://www.w3.org/2000/svg">
<path fill-rule="evenodd" clip-rule="evenodd" d="M46.7481 0.120361C46.9393 0.120361 47.4811 0.311847 47.9591 0.567161C48.469 0.822475 52.3889 4.58836 56.6912 8.96061C61.0254 13.3009 64.6585 17.1945 64.7541 17.6094C64.8497 17.9923 64.7541 18.6306 64.531 19.0136C64.2761 19.4285 63.1606 20.6731 62.0771 21.8221C60.9617 22.971 59.7825 24.2475 59.4638 24.6943C59.0495 25.2688 58.8902 26.0667 58.8902 27.4709C58.8902 28.5879 58.7946 29.4815 58.6352 29.4815C58.5078 29.4815 55.5758 26.6411 52.1339 23.1625C46.2063 17.2264 45.8239 16.9073 45.2821 17.386C44.9634 17.6732 44.1985 18.1838 43.593 18.4711C42.9238 18.8221 41.7446 19.0455 40.7248 19.0774C39.2907 19.0774 38.494 18.8221 36.2631 17.737C34.7653 17.003 33.2356 16.3966 32.8213 16.3966C32.4389 16.3966 31.6421 16.5881 31.0685 16.8434C30.5267 17.0668 29.2838 17.8009 28.3596 18.4391C26.9255 19.4285 26.4475 19.5881 24.854 19.5881C23.4836 19.5881 22.7825 19.4285 21.9221 18.8859C21.3165 18.4711 20.6154 17.7689 20.3286 17.2902C19.8824 16.4924 19.9143 16.3966 20.711 15.2158C21.1891 14.5456 23.1968 12.4073 25.1727 10.4287C27.1486 8.4819 29.3157 6.66278 29.9531 6.37556C30.8454 5.99258 32.2158 5.86493 35.3071 5.86493C37.5698 5.86493 39.8006 5.73727 40.2468 5.54578C40.6929 5.38621 42.2545 4.07773 43.7205 2.6735C45.2184 1.26927 46.5569 0.120361 46.7481 0.120361V0.120361ZM18.7352 0.439504C19.3088 0.439504 20.2649 1.17353 22.177 3.08839C23.6111 4.52453 24.7903 5.86493 24.7903 6.0245C24.7903 6.21598 23.2287 7.93935 21.3165 9.85421C19.3407 11.8329 17.6197 13.8754 17.3329 14.5775C17.0461 15.2158 16.823 16.1413 16.823 16.6519C16.823 17.1307 17.1417 18.1519 17.5241 18.9179C18.0022 19.7795 18.8626 20.7051 19.8506 21.4072C20.711 21.9816 22.1451 22.6518 23.0375 22.8433C24.2166 23.0986 25.0771 23.0986 26.3837 22.8433C27.4354 22.6199 28.9014 21.9816 30.0487 21.2157C31.1004 20.5136 32.3432 19.9391 32.8213 19.9072C33.3312 19.9072 34.096 20.2583 34.5741 20.6731C35.084 21.088 36.0719 21.7263 36.8049 22.1093C37.5698 22.4603 38.9401 22.8752 39.8325 22.971C41.1072 23.1305 42.0314 23.0029 43.4974 22.4923C44.6128 22.1093 45.6964 21.8221 45.8876 21.8221C46.1107 21.8221 48.8514 24.3752 51.9427 27.4709C55.034 30.5985 57.7429 33.5346 57.9341 34.0452C58.0935 34.5239 58.1572 35.1622 58.0616 35.4814C57.966 35.7686 57.711 36.343 57.5198 36.7579C57.2967 37.1409 56.6594 37.6196 56.0857 37.7792C55.5439 37.9707 54.7472 38.0026 54.3329 37.9068C53.9505 37.7792 52.2933 36.4388 50.668 34.875C48.5327 32.8006 47.5448 32.0665 47.0349 32.0984C46.6525 32.1623 46.1107 32.5772 45.8239 33.0559C45.3458 33.9495 45.3458 33.9495 47.9272 36.5664C49.3613 38.0345 50.7636 39.5664 51.0504 40.0132C51.3372 40.46 51.5603 41.194 51.5603 41.6727C51.5603 42.1833 51.2097 42.9812 50.7636 43.5237C50.0943 44.3216 49.7438 44.4812 48.5965 44.4812C47.3536 44.4493 47.0668 44.2578 44.2942 41.6089C42.1908 39.5345 41.1391 38.7366 40.5655 38.7366C40.0874 38.7366 39.5775 39.0238 39.3226 39.4387C39.0676 39.8536 38.9401 40.3962 39.0358 40.6515C39.1314 40.9068 40.5017 42.4387 42.0314 44.0025C44.6766 46.6833 44.8359 46.9705 44.8678 48.2151C44.8678 49.3641 44.7085 49.7151 43.9117 50.3853C43.3699 50.8321 42.6051 51.1832 42.1589 51.1832C41.7128 51.1832 41.0435 51.0236 40.6292 50.8321C40.2468 50.6087 39.0039 49.5555 37.8566 48.4705C36.4862 47.162 35.3389 46.3641 34.5103 46.1088C33.8092 45.9173 33.0444 45.7577 32.8213 45.7577C32.6301 45.7577 32.4389 45.5663 32.4389 45.3748C32.4389 45.1514 32.2795 44.4173 32.1202 43.7791C31.9289 43.1089 31.3872 42.0876 30.9091 41.5451C30.3992 40.9706 29.5069 40.2685 28.9333 40.0132C27.9453 39.5345 27.9134 39.5026 28.1365 38.0983C28.264 37.3005 28.3596 36.1516 28.3277 35.5452C28.2959 34.9388 27.9134 33.8218 27.4991 33.0559C26.9892 32.1942 26.1606 31.4282 25.1727 30.8538C23.8979 30.1517 23.4199 30.0559 21.9221 30.1836C20.966 30.2793 19.9462 30.4389 19.6912 30.5666C19.3407 30.7261 19.022 30.4389 18.5439 29.5772C18.1615 28.907 17.3967 27.9815 16.7911 27.5028C16.1856 27.0241 15.0702 26.4815 14.2735 26.2581C13.1899 25.9709 12.4888 25.9709 11.469 26.2581C10.736 26.4496 9.6206 27.0241 9.01508 27.5666C8.40957 28.1092 7.80406 28.4602 7.64471 28.3964C7.51724 28.3326 7.29415 27.8858 7.16668 27.3751C7.00733 26.8645 6.56116 25.8752 6.14687 25.1731C5.76444 24.4709 4.39407 22.8114 3.15117 21.5029C1.71707 20.0029 0.824731 18.8221 0.792862 18.3115C0.729124 17.6732 2.29071 15.9817 9.33377 8.99252C15.9944 2.35436 18.0978 0.439504 18.7352 0.439504ZM32.7575 49.2683C33.6817 49.2683 34.2554 49.4917 34.829 50.0662C35.4345 50.6725 35.6258 51.1832 35.6258 52.2363C35.5939 53.3853 35.4027 53.7682 34.2235 54.9491C33.0125 56.098 32.6619 56.2895 31.4509 56.2895C30.3992 56.2895 29.8893 56.1299 29.3476 55.5873C28.9651 55.1725 28.5508 54.5023 28.4552 54.0555C28.3277 53.5767 28.4234 52.8746 28.7102 52.3002C28.9651 51.7895 29.6981 50.864 30.3355 50.3215C31.2278 49.4917 31.8015 49.2683 32.7575 49.2683ZM12.9668 29.4815C13.9229 29.4815 14.4647 29.673 15.0702 30.2793C15.6757 30.8857 15.8669 31.3963 15.8669 32.4495C15.8351 33.6942 15.6757 33.9814 13.2218 36.4388C11.4371 38.226 10.2898 39.1196 9.65246 39.2472C9.11069 39.343 8.31396 39.2792 7.80406 39.0877C7.32602 38.8962 6.72051 38.2579 6.43369 37.7154C6.115 37.0771 5.98752 36.2792 6.115 35.7048C6.24247 35.0665 7.16668 33.8856 8.98321 32.1304C11.4371 29.673 11.7558 29.4815 12.9668 29.4815ZM22.3045 33.3112C22.8781 33.3112 23.5474 33.6622 24.1529 34.2686C24.8859 35.0026 25.109 35.5133 25.109 36.4388C25.0771 37.5239 24.7584 37.9388 21.0297 41.7046C17.1098 45.6301 16.9505 45.7577 15.612 45.7577C14.624 45.7577 14.0823 45.5663 13.4768 44.9599C12.9031 44.3854 12.68 43.811 12.68 42.8855C12.68 41.7046 12.9031 41.3536 16.09 38.0664C18.0022 36.0877 19.9462 34.2367 20.4879 33.9176C21.0297 33.5665 21.8265 33.3112 22.3045 33.3112ZM26.1925 42.5663C26.9892 42.5663 27.5948 42.8216 28.1365 43.3642C28.7739 44.0025 28.9333 44.4812 28.9333 45.6939C28.9014 47.162 28.8376 47.2577 26.2563 49.8428C23.8023 52.2683 23.5155 52.4597 22.2726 52.4597C21.3165 52.4597 20.7748 52.2683 20.1693 51.6619C19.5319 51.0236 19.3725 50.5768 19.4044 49.4917C19.4363 48.1832 19.6275 47.9279 22.2407 45.3429C24.7265 42.8855 25.1408 42.5663 26.1925 42.5663Z" fill="#E81AF6"/>
</svg>
