<svg width="185" height="165" viewBox="0 0 185 165" fill="none" xmlns="http://www.w3.org/2000/svg">
<g clip-path="url(#clip0_390_437)">
<path d="M170.541 0H14.4585C6.47331 0 0 6.47331 0 14.4585V109.908C0 117.893 6.47331 124.367 14.4585 124.367H170.541C178.527 124.367 185 117.893 185 109.908V14.4585C185 6.47331 178.527 0 170.541 0Z" fill="#1E1F21"/>
<path d="M111.38 98.9574C131.691 88.5283 139.701 63.6092 129.272 43.2989C118.843 22.9886 93.9236 14.9784 73.6133 25.4075C53.3031 35.8366 45.2928 60.7557 55.7219 81.066C66.151 101.376 91.0702 109.386 111.38 98.9574Z" fill="#333333"/>
<path d="M77.3125 62.1837V44.2089C77.3125 40.8313 80.9676 38.703 83.9056 40.4149L99.4746 49.3908L115.044 58.3667C117.982 60.0554 117.982 64.2889 115.044 65.9776L99.4746 74.9766L83.9056 83.9756C80.9676 85.6644 77.3125 83.5592 77.3125 80.1817V62.2069V62.1837Z" fill="#F1F2F2"/>
<path d="M179.749 131.538H5.62153C3.78173 131.538 2.29028 133.03 2.29028 134.869V145.002C2.29028 146.842 3.78173 148.333 5.62153 148.333H179.749C181.588 148.333 183.08 146.842 183.08 145.002V134.869C183.08 133.03 181.588 131.538 179.749 131.538Z" fill="#B3B3B3"/>
<path d="M94.478 153.214H5.62153C3.78173 153.214 2.29028 154.705 2.29028 156.545V161.519C2.29028 163.359 3.78173 164.85 5.62153 164.85H94.478C96.3178 164.85 97.8092 163.359 97.8092 161.519V156.545C97.8092 154.705 96.3178 153.214 94.478 153.214Z" fill="#B3B3B3"/>
</g>
<defs>
<clipPath id="clip0_390_437">
<rect width="185" height="164.851" fill="white"/>
</clipPath>
</defs>
</svg>
