<svg width="64" height="64" viewBox="0 0 64 64" fill="none" xmlns="http://www.w3.org/2000/svg">
<path fill-rule="evenodd" clip-rule="evenodd" d="M2.81177 2.81177C0 5.62355 0 10.149 0 19.2V44.8C0 53.851 0 58.3764 2.81177 61.1882C5.62355 64 10.149 64 19.2 64H44.8C53.851 64 58.3764 64 61.1882 61.1882C64 58.3764 64 53.851 64 44.8V19.2C64 10.149 64 5.62355 61.1882 2.81177C58.3764 0 53.851 0 44.8 0H19.2C10.149 0 5.62355 0 2.81177 2.81177ZM50.6626 24.175C51.6429 22.7045 51.2455 20.7178 49.775 19.7374C48.3046 18.7571 46.3178 19.1545 45.3374 20.625L35.5961 35.2369L34.1282 32.301C31.9306 27.9057 25.8046 27.5243 23.0787 31.613L13.3374 46.225C12.3571 47.6955 12.7545 49.6822 14.225 50.6626C15.6955 51.6429 17.6822 51.2455 18.6626 49.775L28.4038 35.1631L29.8718 38.0991C32.0695 42.4943 38.1954 42.8757 40.9213 38.787L50.6626 24.175Z" fill="#F412FB"/>
</svg>
