<svg width="315" height="80" viewBox="0 0 315 80" fill="none" xmlns="http://www.w3.org/2000/svg">
<g clip-path="url(#clip0_323_439)">
<path d="M48.2 28.26H37.6V35.06H48.2C49.1017 35.06 49.9665 34.7018 50.6042 34.0642C51.2418 33.4265 51.6 32.5617 51.6 31.66C51.6 30.7583 51.2418 29.8935 50.6042 29.2558C49.9665 28.6182 49.1017 28.26 48.2 28.26ZM48.2 28.26H37.6V35.06H48.2C49.1017 35.06 49.9665 34.7018 50.6042 34.0642C51.2418 33.4265 51.6 32.5617 51.6 31.66C51.6 30.7583 51.2418 29.8935 50.6042 29.2558C49.9665 28.6182 49.1017 28.26 48.2 28.26ZM39.84 1.25545e-06C31.9584 1.25545e-06 24.2538 2.33716 17.7005 6.71594C11.1472 11.0947 6.03956 17.3184 3.02341 24.6001C0.00725651 31.8817 -0.781906 39.8942 0.755715 47.6243C2.29334 55.3545 6.08868 62.4551 11.6618 68.0282C17.2349 73.6013 24.3355 77.3967 32.0657 78.9343C39.7958 80.4719 47.8083 79.6828 55.0899 76.6666C62.3716 73.6505 68.5953 68.5428 72.9741 61.9895C77.3529 55.4362 79.69 47.7316 79.69 39.85C79.6913 34.6165 78.6615 29.4339 76.6593 24.5985C74.6571 19.7631 71.7218 15.3695 68.0211 11.6689C64.3205 7.96819 59.9269 5.03291 55.0915 3.03073C50.2561 1.02854 45.0736 -0.00131255 39.84 1.25545e-06ZM34.84 25.41H48.2C49.8157 25.4746 51.3436 26.1619 52.4639 27.3279C53.5842 28.4938 54.2099 30.0481 54.2099 31.665C54.2099 33.2819 53.5842 34.8362 52.4639 36.0021C51.3436 37.1681 49.8157 37.8554 48.2 37.92H34.87L34.84 25.41ZM30.53 61.49H27.67V18.21H30.53V61.49ZM47.79 45.12H37.73V61.49H34.87V42.26H47.79C50.6013 42.26 53.2975 41.1432 55.2853 39.1553C57.2732 37.1674 58.39 34.4713 58.39 31.66C58.39 28.8487 57.2732 26.1526 55.2853 24.1647C53.2975 22.1768 50.6013 21.06 47.79 21.06H34.87V18.21H47.79C51.295 18.3056 54.6243 19.7651 57.0696 22.2779C59.5149 24.7908 60.8832 28.1587 60.8832 31.665C60.8832 35.1713 59.5149 38.5392 57.0696 41.0521C54.6243 43.5649 51.295 45.0244 47.79 45.12ZM51.59 31.66C51.59 30.76 51.2332 29.8967 50.5977 29.2594C49.9622 28.622 49.1 28.2626 48.2 28.26H37.6V35.06H48.2C49.1 35.0574 49.9622 34.698 50.5977 34.0606C51.2332 33.4233 51.59 32.56 51.59 31.66Z" fill="white"/>
<path d="M104.09 47.62V53.62H101V34.17H110C119.26 34.17 119.29 47.59 110 47.65L104.09 47.62ZM104.09 44.76H110C115.13 44.76 115.1 37 110 37H104.12L104.09 44.76Z" fill="white"/>
<path d="M138.82 44C138.82 49.24 135.63 54 128.89 54C122.15 54 119 49.09 119 44C119 38.09 123.13 33.82 129 33.82C135.57 33.83 138.82 38.72 138.82 44ZM128.89 51.18C133.71 51.18 135.74 47.77 135.74 44.05C135.74 40.33 133.69 36.76 128.94 36.67C124.45 36.67 122.04 39.81 122.04 44.05C122.09 47.45 124.09 51.14 128.89 51.14V51.18Z" fill="white"/>
<path d="M149.86 34.17C156.49 34.17 159.51 38.91 159.6 43.71C159.69 48.51 156.66 53.58 149.86 53.58H142.51V34.17H149.86ZM145.59 50.59H149.86C154.6 50.59 156.6 47.09 156.52 43.68C156.44 40.27 154.44 37.13 149.86 37.13H145.59V50.59Z" fill="white"/>
<path d="M179.65 51.09C178.689 52.0352 177.55 52.7793 176.298 53.279C175.046 53.7786 173.708 54.0238 172.36 54C165.31 54 162.15 49.15 162.12 44C162.09 38.85 165.42 33.82 172.36 33.82C173.68 33.8138 174.987 34.0705 176.206 34.5753C177.425 35.0801 178.531 35.8228 179.46 36.76L177.38 38.76C176.038 37.4663 174.244 36.7485 172.38 36.76C167.44 36.76 165.19 40.4 165.22 43.98C165.25 47.56 167.36 51.05 172.38 51.05C174.292 51.0438 176.129 50.3109 177.52 49L179.65 51.09Z" fill="white"/>
<path d="M196.27 49.51H185.76L183.93 53.58H180.62L189.33 34.17H192.72L201.43 53.58H198.13L196.27 49.51ZM191 37.44L186.89 46.68H195.1L191 37.44Z" fill="white"/>
<path d="M215.38 38.47C214.804 37.76 214.07 37.1941 213.237 36.8174C212.403 36.4407 211.494 36.2636 210.58 36.3C207.98 36.3 206.09 37.38 206.09 39.24C206.09 41.1 208.25 41.66 210.81 42.02C214.81 42.57 218.6 43.68 218.6 48.02C218.6 52.36 214.6 54.02 210.6 54.02C206.88 54.02 204.02 52.88 202.25 49.61L204.58 48.05C205.206 49.0677 206.092 49.8999 207.146 50.4607C208.201 51.0215 209.386 51.2905 210.58 51.24C212.91 51.24 215.49 50.47 215.49 48.03C215.49 45.92 213.25 45.2 210.49 44.84C206.63 44.31 202.97 43.34 202.97 39.18C202.97 35.02 206.97 33.6 210.46 33.6C213.26 33.6 216.06 34.27 217.7 36.87L215.38 38.47Z" fill="white"/>
<path d="M226.51 37H220.13V34.2H236V37H229.65V53.58H226.52L226.51 37Z" fill="white"/>
<path d="M254.69 51.09C253.728 52.0334 252.588 52.7763 251.337 53.2759C250.085 53.7754 248.747 54.0215 247.4 54C240.35 54 237.19 49.15 237.16 44C237.13 38.85 240.46 33.82 247.4 33.82C248.719 33.8138 250.027 34.0705 251.246 34.5753C252.465 35.0801 253.571 35.8228 254.5 36.76L252.42 38.76C251.078 37.4663 249.284 36.7485 247.42 36.76C242.48 36.76 240.23 40.4 240.26 43.98C240.29 47.56 242.4 51.05 247.42 51.05C249.331 51.0438 251.169 50.3109 252.56 49L254.69 51.09Z" fill="white"/>
<path d="M276 44C276 49.24 272.8 54 266.06 54C259.32 54 256.13 49.09 256.13 44C256.13 38.09 260.27 33.82 266.13 33.82C272.78 33.83 276 38.72 276 44ZM266.06 51.18C270.89 51.18 272.92 47.77 272.92 44.05C272.92 40.33 270.86 36.76 266.12 36.67C261.63 36.67 259.21 39.81 259.21 44.05C259.3 47.45 261.29 51.14 266.09 51.14L266.06 51.18Z" fill="white"/>
<path d="M282.82 34.17V50.7H293.06V53.58H279.72V34.17H282.82Z" fill="white"/>
<path d="M309.45 49.51H298.94L297.11 53.58H293.81L302.52 34.17H305.9L314.61 53.58H311.31L309.45 49.51ZM304.21 37.44L300.1 46.68H308.32L304.21 37.44Z" fill="white"/>
<path d="M309.51 32H308.46V31.6H311.06V32H310V34.26H309.53L309.51 32ZM311.51 31.59H312L313.1 32.99L314.2 31.59H314.62V34.26H314.16V32.35L313.16 33.6H313L312 32.33V34.27H311.53L311.51 31.59Z" fill="white"/>
</g>
<defs>
<clipPath id="clip0_323_439">
<rect width="314.61" height="79.7" fill="white"/>
</clipPath>
</defs>
</svg>
